<?xml version="1.0" standalone="no"?>
<!DOCTYPE svg PUBLIC "-//W3C//DTD SVG 20010904//EN"
 "http://www.w3.org/TR/2001/REC-SVG-20010904/DTD/svg10.dtd">
<svg version="1.0" xmlns="http://www.w3.org/2000/svg"
 width="1424.000000pt" height="747.000000pt" viewBox="0 0 1424.000000 747.000000"
 preserveAspectRatio="xMidYMid meet">

<g transform="translate(0.000000,747.000000) scale(0.100000,-0.100000)"
fill="#000000" stroke="none">
<path d="M9873 6988 c-24 -5 -43 -14 -43 -20 0 -5 -7 -7 -16 -4 -10 4 -26 -5
-44 -24 -15 -17 -43 -33 -62 -36 -18 -4 -37 -10 -43 -14 -5 -4 -39 -17 -75
-30 -76 -26 -174 -28 -253 -6 -29 8 -74 15 -102 16 -27 0 -73 3 -101 6 -45 5
-53 3 -75 -20 -13 -14 -28 -26 -32 -26 -13 0 -70 -43 -89 -67 -24 -28 -72 -52
-122 -60 -23 -3 -45 -9 -51 -13 -45 -31 -224 -51 -361 -41 -27 2 -58 -5 -95
-21 -30 -14 -81 -28 -114 -31 -33 -3 -61 -11 -63 -16 -3 -8 -10 -8 -23 0 -15
8 -28 6 -52 -7 -81 -42 -107 -51 -181 -63 -53 -9 -98 -23 -135 -44 -55 -32
-58 -32 -186 -31 -71 0 -171 2 -221 4 -74 2 -97 0 -125 -16 -29 -15 -59 -19
-194 -20 -88 -1 -175 -4 -194 -7 -19 -2 -66 2 -105 10 -39 7 -100 16 -136 19
-84 7 -114 11 -175 24 -27 6 -75 14 -105 19 -30 5 -71 12 -90 15 -43 8 -76
-12 -119 -72 -17 -23 -43 -49 -58 -59 -34 -23 -119 -26 -149 -6 -29 19 -116
23 -121 6 -3 -7 -9 -13 -14 -13 -10 0 -51 -35 -105 -87 -18 -18 -38 -33 -44
-33 -5 0 -10 -7 -10 -15 0 -8 -7 -15 -15 -15 -9 0 -30 -7 -48 -17 -18 -9 -46
-16 -64 -15 -65 3 -149 -55 -192 -132 -27 -48 -216 -167 -240 -151 -6 3 -28 7
-51 10 -22 2 -66 11 -98 20 -35 11 -102 18 -177 20 -66 1 -126 4 -134 6 -9 3
-19 -8 -25 -26 -14 -40 -36 -56 -65 -49 -13 3 -66 7 -117 10 -52 3 -109 11
-129 19 -48 21 -104 18 -221 -9 -77 -18 -118 -22 -180 -18 -89 5 -242 50 -275
80 -29 28 -154 62 -224 62 -61 0 -102 -11 -164 -43 -19 -9 -44 -17 -57 -17
-13 0 -25 -4 -28 -9 -3 -5 -50 -9 -103 -10 -153 -2 -166 -8 -291 -127 -73 -70
-134 -105 -191 -110 -98 -9 -305 -44 -311 -54 -9 -15 -77 -50 -96 -50 -9 0
-22 -8 -29 -17 -11 -14 -16 -15 -28 -4 -20 16 -44 4 -111 -56 -27 -24 -51 -41
-54 -39 -2 3 -14 -1 -26 -9 -24 -18 -118 -20 -196 -5 -51 10 -90 5 -155 -20
-30 -11 -23 -49 9 -51 20 -1 20 -2 1 -6 -32 -8 -40 -19 -39 -55 1 -18 -3 -36
-9 -39 -5 -4 -11 -64 -13 -135 -2 -71 -6 -226 -9 -344 -6 -225 -4 -1633 2
-1875 2 -77 5 -324 7 -550 2 -225 7 -585 11 -800 7 -349 11 -584 14 -817 1
-52 6 -81 16 -91 14 -15 95 -32 128 -28 32 4 119 -19 190 -51 46 -20 94 -32
150 -38 157 -16 190 -25 325 -86 29 -13 55 -24 58 -24 3 0 20 -6 37 -14 20 -9
80 -16 157 -19 90 -3 143 -11 190 -26 36 -12 99 -28 140 -37 41 -9 81 -20 88
-26 13 -11 43 -12 177 -9 63 2 89 -2 122 -19 52 -25 54 -25 86 0 14 11 57 26
96 34 87 16 130 49 171 131 14 28 23 32 120 53 129 28 228 39 480 51 203 11
223 13 405 56 216 50 308 59 640 60 213 1 326 5 360 14 118 30 461 14 535 -24
41 -21 97 -19 131 6 16 11 29 25 29 30 0 5 4 15 10 22 5 7 21 26 34 42 24 30
72 56 170 90 27 10 57 26 67 36 41 41 66 48 259 69 107 12 199 25 205 30 29
23 110 62 157 74 55 14 238 82 315 117 24 10 76 24 115 30 40 6 116 19 168 29
52 11 128 24 169 30 41 6 79 14 85 18 6 4 101 10 211 14 298 10 405 23 476 60
23 12 74 22 141 28 108 9 256 42 375 84 138 48 286 66 492 61 80 -1 154 1 165
5 12 4 39 13 61 19 44 13 97 34 162 62 94 42 359 58 443 28 35 -13 63 -15 130
-9 89 7 93 7 179 -11 49 -10 151 -7 171 6 14 8 203 9 228 1 24 -8 81 21 105
53 6 9 34 29 60 45 26 15 63 41 81 57 19 16 36 29 39 29 4 0 17 11 30 24 34
34 89 46 203 46 106 -1 183 10 205 28 53 45 125 82 158 82 28 0 45 9 79 41 23
22 42 44 42 49 0 6 7 10 15 10 8 0 15 6 15 13 0 6 16 23 35 37 18 14 44 42 56
64 29 52 78 106 95 106 8 0 14 6 14 13 0 21 87 97 112 97 13 1 32 8 44 18 21
18 46 76 37 86 -3 3 2 25 11 49 10 26 14 59 12 81 -3 21 1 72 10 114 12 62 15
168 15 530 0 249 -2 456 -5 460 -4 6 -7 550 -5 697 1 22 1 225 0 450 0 226 0
453 1 505 2 170 -13 605 -22 614 -5 5 -6 15 -3 22 3 8 0 14 -6 14 -8 0 -9 5
-2 19 6 10 11 32 12 47 3 66 -11 252 -21 278 -5 15 -10 37 -10 49 -1 57 -82
100 -193 103 -37 1 -70 4 -74 7 -3 4 -45 4 -92 0 -66 -4 -100 -2 -143 11 -45
13 -66 14 -98 6 -22 -5 -59 -15 -82 -21 -45 -11 -126 -7 -168 9 -14 5 -39 8
-57 7 -18 -1 -30 1 -28 5 2 4 -13 12 -34 19 -21 6 -65 27 -97 46 -32 19 -63
35 -70 35 -30 0 -124 54 -173 100 -30 27 -61 50 -70 50 -9 0 -35 -9 -56 -21
-69 -36 -93 -40 -169 -24 -115 23 -189 36 -221 41 -100 13 -335 82 -355 105
-3 3 -22 15 -43 28 -50 31 -121 25 -152 -11 -26 -30 -50 -41 -91 -42 -17 -1
-39 -8 -48 -15 -15 -13 -18 -12 -22 6 -4 13 -17 23 -36 27 -16 3 -44 13 -61
21 -37 17 -127 45 -142 44 -5 -1 -29 -5 -52 -11z m-58 -188 c3 -5 -1 -10 -10
-10 -9 0 -13 5 -10 10 3 6 8 10 10 10 2 0 7 -4 10 -10z m1448 -161 c-10 -10
-73 -20 -73 -12 0 6 40 19 62 20 15 1 18 -1 11 -8z m-2898 -167 c-3 -3 -11 0
-18 7 -9 10 -8 11 6 5 10 -3 15 -9 12 -12z m-385 -132 c0 -13 -20 -13 -40 0
-12 8 -9 10 13 10 15 0 27 -4 27 -10z m-673 -23 c4 -7 0 -8 -11 -4 -10 4 -24
7 -32 7 -9 0 -13 4 -10 9 7 11 44 3 53 -12z m2963 -58 c0 -5 -15 -9 -32 -10
-18 0 -50 -1 -70 -3 -41 -3 -53 10 -15 16 49 7 117 5 117 -3z m60 -5 c0 -2 -9
-4 -21 -4 -11 0 -18 4 -14 10 5 8 35 3 35 -6z m-224 -3 c-4 -5 0 -12 6 -14 7
-3 -3 -6 -22 -7 -49 -3 -69 -6 -120 -19 -56 -13 -70 -14 -70 -2 0 12 69 29
203 50 5 0 6 -3 3 -8z m-216 -49 c0 -9 -140 -45 -147 -38 -5 5 106 44 130 45
9 1 17 -3 17 -7z m2575 -30 c-3 -3 -11 0 -18 7 -9 10 -8 11 6 5 10 -3 15 -9
12 -12z m-6235 -22 c0 -5 -2 -10 -4 -10 -3 0 -8 5 -11 10 -3 6 -1 10 4 10 6 0
11 -4 11 -10z m-400 -30 c0 -5 -2 -10 -4 -10 -3 0 -8 5 -11 10 -3 6 -1 10 4
10 6 0 11 -4 11 -10z m3918 5 c-2 -2 -40 -12 -85 -24 -46 -11 -117 -36 -159
-56 -42 -19 -83 -35 -90 -35 -25 0 34 47 72 58 39 10 144 48 150 54 4 4 116 7
112 3z m394 -57 c-21 -21 -14 -41 11 -35 21 6 21 5 3 -8 -10 -8 -22 -16 -27
-17 -4 -2 -11 -27 -15 -55 -6 -50 -5 -53 15 -53 12 0 32 5 44 11 20 10 20 10
7 -4 -20 -20 -52 -29 -68 -18 -18 11 -22 131 -5 131 7 0 13 7 13 16 0 21 20
57 28 50 3 -4 0 -12 -6 -18z m158 -39 c0 -6 -4 -7 -10 -4 -5 3 -10 11 -10 16
0 6 5 7 10 4 6 -3 10 -11 10 -16z m-43 -7 c-10 -10 -17 -22 -17 -25 0 -12 35
-8 49 6 11 10 13 9 7 -1 -4 -6 -20 -19 -37 -27 -31 -17 -38 -42 -14 -51 8 -4
22 -1 30 6 9 7 18 10 21 7 3 -3 -6 -13 -20 -22 -21 -14 -29 -15 -41 -5 -30 25
-8 130 27 130 6 0 4 -8 -5 -18z m-493 -27 c-4 -8 -8 -15 -10 -15 -2 0 -4 7 -4
15 0 8 4 15 10 15 5 0 7 -7 4 -15z m256 -10 c7 -9 10 -18 6 -22 -3 -3 -6 -1
-6 5 0 21 -39 13 -55 -11 -18 -28 -31 -87 -18 -87 5 0 14 4 21 10 7 5 5 2 -3
-7 -13 -16 -17 -16 -30 -2 -14 14 -14 19 0 52 16 38 48 77 64 77 5 0 14 -7 21
-15z m-735 -35 c-3 -5 -12 -10 -18 -10 -7 0 -6 4 3 10 19 12 23 12 15 0z m560
-70 c8 0 17 9 20 21 4 11 9 18 12 16 7 -8 -26 -67 -38 -67 -12 0 -39 62 -38
87 0 10 7 1 16 -19 8 -21 21 -38 28 -38z m189 35 c17 -17 20 -25 11 -25 -8 0
-19 9 -25 20 -6 11 -16 17 -22 14 -7 -4 -8 -3 -4 4 10 16 12 16 40 -13z m-852
-26 c-35 -22 -66 -47 -69 -55 -3 -8 -10 -14 -16 -14 -18 0 55 70 93 90 61 31
57 21 -8 -21z m440 16 c-2 -14 -1 -25 3 -25 4 0 16 11 27 25 11 14 23 25 28
25 4 0 -5 -14 -22 -32 -16 -17 -32 -44 -35 -60 -3 -16 -10 -31 -16 -35 -11 -7
-4 98 8 117 10 16 13 12 7 -15z m-132 -9 c0 -12 -5 -37 -11 -55 -14 -38 -8
-47 21 -31 12 6 24 9 27 6 3 -3 -7 -10 -23 -16 -36 -14 -44 -26 -44 -72 0 -20
-5 -40 -11 -44 -8 -5 -10 3 -6 27 4 19 12 73 18 122 7 48 16 87 21 87 4 0 8
-11 8 -24z m270 7 c-1 -10 -7 -31 -16 -48 -12 -26 -14 -27 -9 -5 2 14 5 35 5
48 0 12 5 22 10 22 6 0 10 -8 10 -17z m-205 -22 c7 -22 -3 -51 -17 -51 -6 0
-5 7 2 15 10 13 10 19 -5 35 -16 17 -16 20 -2 20 9 0 18 -8 22 -19z m-495 -85
c0 -2 -8 -10 -17 -17 -16 -13 -17 -12 -4 4 13 16 21 21 21 13z m40 0 c0 -3 -4
-8 -10 -11 -5 -3 -10 -1 -10 4 0 6 5 11 10 11 6 0 10 -2 10 -4z m1322 -89
c-28 -30 -28 -39 0 -35 14 2 25 13 29 28 6 22 7 22 8 4 1 -29 -32 -57 -58 -49
-28 9 -26 29 5 54 35 28 43 27 16 -2z m-124 -46 l27 24 -22 -25 c-11 -14 -26
-44 -32 -67 -7 -24 -14 -43 -16 -43 -3 0 -3 26 -1 58 6 85 9 101 13 63 l4 -33
27 23z m-1221 -13 c-3 -8 -6 -5 -6 6 -1 11 2 17 5 13 3 -3 4 -12 1 -19z m1121
-25 c-1 -27 2 -56 6 -67 7 -14 6 -18 -5 -14 -19 6 -27 47 -16 91 5 20 11 37
13 37 2 0 3 -21 2 -47z m-150 11 c2 -15 1 -16 -6 -5 -14 19 -40 7 -52 -24 -24
-64 2 -95 47 -54 25 23 25 23 14 2 -15 -30 -28 -36 -57 -29 -19 5 -24 13 -24
39 0 65 69 128 78 71z m78 -18 c-6 -37 -4 -46 11 -55 17 -9 17 -10 -1 -17 -22
-9 -37 12 -31 43 3 13 7 34 10 48 9 43 18 27 11 -19z m-198 0 c2 -10 -1 -23
-7 -29 -7 -7 -8 -3 -4 12 4 16 1 21 -15 21 -11 0 -25 -7 -33 -16 -10 -13 -10
-17 2 -25 11 -7 11 -9 -3 -9 -24 0 -23 25 3 51 24 24 52 22 57 -5z m477 -20
c8 -3 21 2 30 10 8 9 15 11 15 5 0 -6 -9 -15 -21 -21 -26 -14 -50 3 -48 34 l2
21 4 -22 c2 -12 11 -24 18 -27z m-595 1 c-1 -21 -1 -21 -15 -3 -19 24 -42 14
-59 -25 -7 -17 -16 -27 -19 -21 -9 13 30 61 57 72 27 10 36 4 36 -23z m1073
-12 c-3 -9 -8 -14 -10 -11 -3 3 -2 9 2 15 9 16 15 13 8 -4z m-1008 -71 c8 -4
23 0 33 7 15 13 16 12 3 -3 -28 -36 -72 -17 -70 30 0 12 3 10 9 -6 5 -12 16
-25 25 -28z m-101 0 c9 -8 16 -19 16 -24 0 -16 -35 -29 -51 -19 -11 7 -9 9 8
9 32 0 37 16 11 34 -12 9 -17 16 -11 16 6 0 19 -7 27 -16z m-594 -29 c13 -14
21 -25 18 -25 -2 0 -15 11 -28 25 -13 14 -21 25 -18 25 2 0 15 -11 28 -25z
m2797 -17 c7 -9 4 -19 -9 -30 -15 -15 -18 -15 -18 -3 0 9 -6 12 -15 9 -9 -4
-15 0 -15 9 0 25 41 36 57 15z m-1660 -94 c-3 -3 -12 -4 -19 -1 -8 3 -5 6 6 6
11 1 17 -2 13 -5z m-877 -54 c11 -8 7 -9 -15 -4 -37 8 -45 14 -19 14 10 0 26
-5 34 -10z m-470 -264 c0 -3 -4 -8 -10 -11 -5 -3 -10 -1 -10 4 0 6 5 11 10 11
6 0 10 -2 10 -4z m-85 -56 c-10 -16 -45 -32 -45 -20 0 5 7 10 15 10 8 0 15 5
15 10 0 6 5 10 11 10 5 0 7 -4 4 -10z m-5097 -332 c22 -51 65 -150 95 -219
l55 -125 -59 -285 c-32 -156 -88 -432 -124 -614 -36 -181 -68 -341 -71 -353
-5 -26 -73 -101 -272 -304 l-125 -128 -454 0 c-425 0 -453 1 -453 18 0 17 406
2052 416 2085 5 16 37 17 478 17 l474 0 40 -92z m5628 75 c-2 -10 -19 -85 -36
-168 -18 -82 -35 -161 -39 -175 l-8 -25 -302 0 c-258 0 -304 -2 -311 -15 -8
-16 -32 -124 -185 -847 -52 -249 -95 -460 -95 -468 0 -13 39 -15 293 -15 162
0 296 -2 299 -5 4 -5 -63 -338 -75 -369 -6 -14 -60 -16 -486 -16 -264 0 -482
3 -484 8 -5 8 31 199 133 692 39 190 80 388 90 440 11 52 40 194 65 315 26
121 55 264 66 319 11 54 22 104 26 110 4 6 52 62 107 124 l100 112 424 0 c398
0 423 -1 418 -17z m-4570 -595 c3 -5 12 -71 19 -146 13 -133 12 -140 -11 -242
-38 -166 -103 -471 -110 -518 -5 -33 -15 -49 -43 -70 -54 -43 -131 -92 -142
-92 -15 0 -12 -15 41 -223 28 -108 50 -201 50 -207 0 -7 -51 -10 -152 -8
l-152 3 -28 100 c-16 55 -53 194 -83 310 l-54 209 67 111 67 110 77 3 c62 2
78 6 82 20 7 24 56 269 56 282 0 6 -47 10 -129 10 -115 0 -130 -2 -135 -17 -3
-10 -25 -119 -50 -243 -79 -398 -167 -824 -177 -862 l-10 -38 -154 0 c-149 0
-155 1 -155 20 0 12 29 161 64 333 36 172 97 472 136 667 l72 355 69 71 70 70
354 1 c230 1 357 -2 361 -9z m1099 -20 c-4 -18 -21 -98 -39 -178 l-32 -145
-286 -3 -287 -2 -6 -38 c-4 -20 -13 -63 -21 -95 -25 -106 -42 -97 181 -97 185
0 195 -1 195 -19 0 -16 -37 -202 -55 -279 l-6 -23 -196 1 c-158 1 -198 -1
-204 -12 -8 -14 -49 -205 -49 -227 0 -8 86 -11 285 -11 157 0 285 -2 285 -5 0
-14 -71 -338 -76 -346 -3 -5 -196 -9 -450 -9 -386 0 -444 2 -444 15 0 8 27
145 60 305 33 160 101 490 150 733 50 243 92 448 95 455 3 9 104 12 455 12
l451 0 -6 -32z m1009 24 c5 -9 -7 -67 -84 -422 -27 -124 -70 -323 -95 -442
-24 -119 -49 -236 -55 -260 -5 -24 -23 -110 -40 -193 -17 -82 -33 -160 -35
-172 -5 -23 -8 -23 -165 -23 -88 0 -160 4 -160 9 0 12 89 451 96 474 5 16 -4
17 -123 15 l-128 -3 -47 -225 c-26 -124 -50 -235 -53 -247 -5 -23 -8 -23 -160
-23 -146 0 -155 1 -155 19 0 18 96 493 241 1199 l63 302 447 0 c246 0 450 -4
453 -8z m493 -197 c41 -110 78 -203 82 -208 4 -4 81 87 170 203 l164 210 158
0 159 0 0 -27 c0 -16 -5 -46 -10 -68 -20 -81 -63 -277 -115 -530 -30 -143 -66
-314 -80 -380 -26 -121 -105 -506 -105 -512 0 -2 -72 -3 -160 -3 -121 0 -160
3 -160 13 0 14 36 198 79 402 16 77 37 176 46 220 9 44 19 83 21 87 3 5 2 8
-3 7 -4 0 -75 -90 -156 -200 -81 -109 -151 -199 -155 -199 -4 0 -34 80 -65
178 -88 267 -77 254 -104 126 -13 -60 -46 -217 -73 -349 -27 -132 -52 -250
-55 -262 -5 -23 -8 -23 -165 -23 -150 0 -160 1 -160 19 0 10 31 169 69 352 37
184 103 507 146 719 42 212 81 395 86 408 9 22 11 22 160 20 l151 -3 75 -200z
m2789 190 c3 -7 1 -31 -5 -53 -6 -21 -42 -192 -81 -378 -38 -187 -88 -422
-109 -523 -22 -101 -46 -217 -53 -258 -12 -74 -12 -74 -88 -148 -41 -41 -92
-90 -114 -110 l-39 -35 -345 0 -345 0 6 43 c5 43 144 723 218 1072 l41 190
105 107 106 106 349 0 c273 0 351 -3 354 -13z m930 -130 c10 -113 9 -151 -2
-195 -7 -30 -34 -161 -59 -290 -70 -354 -64 -339 -144 -393 -36 -24 -74 -47
-85 -51 -22 -7 -24 11 38 -245 25 -101 43 -188 40 -192 -3 -5 -70 -9 -149 -9
l-144 0 -10 38 c-50 192 -88 336 -117 437 -19 66 -34 128 -34 138 0 10 27 68
61 128 l61 109 73 0 74 0 15 73 c23 107 46 221 46 230 0 12 -228 8 -235 -4 -8
-13 -26 -86 -66 -274 -16 -77 -53 -248 -81 -380 -28 -132 -63 -296 -77 -365
l-26 -125 -158 -3 c-86 -1 -157 1 -157 6 0 4 14 73 30 152 17 80 66 318 110
530 143 696 167 807 174 819 6 9 112 11 409 9 l402 -3 11 -140z m1028 123 c-1
-14 -63 -305 -70 -325 -2 -10 -64 -13 -263 -13 l-259 0 -22 -97 c-12 -54 -24
-106 -26 -115 -5 -17 9 -18 191 -18 182 0 196 -1 191 -17 -4 -15 -28 -123 -62
-281 l-5 -23 -190 1 c-105 1 -192 0 -195 -2 -3 -4 -54 -231 -54 -243 0 -3 126
-5 280 -5 154 0 280 -3 280 -6 0 -3 -9 -40 -19 -82 -11 -43 -29 -121 -41 -174
l-22 -98 -439 0 c-241 0 -439 4 -439 8 0 5 18 96 40 203 23 107 47 226 55 264
7 39 41 201 75 360 33 160 77 369 97 465 19 96 39 184 43 196 8 21 9 21 432
18 339 -2 423 -6 422 -16z m-9438 -2104 c18 -14 18 -14 -6 -3 -31 14 -36 19
-24 19 6 0 19 -7 30 -16z m-288 -831 c-15 -2 -42 -2 -60 0 -18 2 -6 4 27 4 33
0 48 -2 33 -4z m105 0 c-7 -2 -19 -2 -25 0 -7 3 -2 5 12 5 14 0 19 -2 13 -5z
m135 0 c-16 -2 -40 -2 -55 0 -16 2 -3 4 27 4 30 0 43 -2 28 -4z m230 0 c-10
-2 -28 -2 -40 0 -13 2 -5 4 17 4 22 1 32 -1 23 -4z"/>
<path d="M3106 4371 c-3 -4 -20 -73 -37 -152 -40 -184 -34 -157 -128 -614 -44
-214 -87 -423 -95 -463 -27 -123 -42 -112 157 -112 l173 0 82 84 c45 46 82 86
82 89 0 5 90 448 155 762 25 121 45 231 45 245 0 14 -17 57 -38 95 l-37 70
-177 3 c-97 1 -179 -2 -182 -7z"/>
<path d="M6306 3783 c-4 -11 -19 -79 -35 -152 l-28 -131 122 0 121 0 31 143
c17 78 30 143 28 145 -1 1 -54 5 -117 9 -110 6 -116 5 -122 -14z"/>
<path d="M9605 3778 c-43 -198 -155 -747 -155 -760 0 -16 12 -18 115 -18 63 0
115 3 115 8 0 4 7 41 16 82 74 352 142 696 138 702 -3 5 -54 8 -114 8 -106 0
-110 -1 -115 -22z"/>
</g>
</svg>
